<?xml version="1.0" encoding="UTF-8"?>
<svg fill="rgba(255, 255, 255, 0.73)" width="700pt" height="700pt" version="1.1" viewBox="0 0 700 700" xmlns="http://www.w3.org/2000/svg" xmlns:xlink="http://www.w3.org/1999/xlink">
 <g>
  <path d="m356.16 14c-16.801-1.1211-31.359 11.762-31.359 28.559v323.12c-19.039-6.7188-40.879-8.3984-63.281-3.9219-59.359 11.762-99.68 61.602-90.16 111.44 9.5195 49.84 66.078 81.199 125.44 69.441 53.199-10.641 90.719-51.52 91.281-95.762v-328.16c101.92 0 110.32 23.52 100.8 72.801-1.6797 7.2812 8.3984 11.762 12.879 5.6016 70.559-97.441 1.1172-171.92-145.6-183.12z"/>
  <use x="70" y="644" xlink:href="#h"/>
  <use x="90.546875" y="644" xlink:href="#c"/>
  <use x="104.359375" y="644" xlink:href="#a"/>
  <use x="123.347656" y="644" xlink:href="#l"/>
  <use x="142.242188" y="644" xlink:href="#b"/>
  <use x="155.625" y="644" xlink:href="#a"/>
  <use x="174.617188" y="644" xlink:href="#e"/>
  <use x="204.40625" y="644" xlink:href="#k"/>
  <use x="224.453125" y="644" xlink:href="#j"/>
  <use x="252.453125" y="644" xlink:href="#i"/>
  <use x="274.121094" y="644" xlink:href="#e"/>
  <use x="294.164062" y="644" xlink:href="#c"/>
  <use x="307.972656" y="644" xlink:href="#u"/>
  <use x="317.570312" y="644" xlink:href="#a"/>
  <use x="336.5625" y="644" xlink:href="#g"/>
  <use x="366.242188" y="644" xlink:href="#h"/>
  <use x="386.789062" y="644" xlink:href="#d"/>
  <use x="406.027344" y="644" xlink:href="#t"/>
  <use x="426.070312" y="644" xlink:href="#f"/>
  <use x="446.003906" y="644" xlink:href="#a"/>
  <use x="464.992188" y="644" xlink:href="#b"/>
  <use x="70" y="672" xlink:href="#s"/>
  <use x="82.179688" y="672" xlink:href="#c"/>
  <use x="95.992188" y="672" xlink:href="#d"/>
  <use x="115.226562" y="672" xlink:href="#r"/>
  <use x="154.148438" y="672" xlink:href="#b"/>
  <use x="167.535156" y="672" xlink:href="#q"/>
  <use x="187.46875" y="672" xlink:href="#a"/>
  <use x="216.207031" y="672" xlink:href="#p"/>
  <use x="239.640625" y="672" xlink:href="#d"/>
  <use x="258.875" y="672" xlink:href="#f"/>
  <use x="278.8125" y="672" xlink:href="#g"/>
  <use x="308.492188" y="672" xlink:href="#o"/>
  <use x="329.015625" y="672" xlink:href="#c"/>
  <use x="342.820312" y="672" xlink:href="#d"/>
  <use x="362.058594" y="672" xlink:href="#n"/>
  <use x="371.65625" y="672" xlink:href="#a"/>
  <use x="390.648438" y="672" xlink:href="#m"/>
  <use x="407.242188" y="672" xlink:href="#b"/>
  <line x1="130" y1="35" x2="600" y2="530" stroke="rgba(255, 255, 255, 0.73)" stroke-width="34" stroke-linecap="round"/>
 </g>
</svg>